<svg version="1.1" id="pdf" xmlns="http://www.w3.org/2000/svg" xmlns:xlink="http://www.w3.org/1999/xlink" x="0px" y="0px" width="48px" height="48px" viewBox="0 0 47.125 48" enable-background="new 0 0 47.125 48" xml:space="preserve"> <path fill="#D15851" d="M-257.438,104.5c-9.667,0-19.333,0-29,0c-1.616-1.822-3.971-1.398-5.968-1.741 C-357.543,91.558-403.845,31.85-398.251-33.85c5.701-66.959,60.823-117.651,127.932-117.651 c60.435,0,112.141,41.636,125.126,100.622c0.908,4.125,0.622,8.529,2.755,12.379c0,3,0,6,0,9c-2.383-0.339-4.334-1.633-6.29-2.888 c-18.322-11.75-36.635-23.512-54.951-35.271c-10.336-10.577-19.859-21.941-30.846-31.888c-1.934-0.958-4.008-0.922-6.086-0.862 c-21.485,0.038-42.971,0.058-64.456,0.121c-13.065,0.038-20.635,6.835-20.708,19.672c-0.218,38.476-0.188,76.954-0.006,115.43 c0.052,11.054,6.281,17.463,17.233,18.987c0.626,0.969,1.087,2.114,1.903,2.881c12.848,12.069,25.781,24.049,38.601,36.148 C-264.219,96.437-259.576,99.345-257.438,104.5z"/> <path fill="#A84640" d="M-203.678-67.659c18.316,11.759,36.629,23.521,54.951,35.271c1.956,1.254,3.907,2.549,6.29,2.888 c0,7.333,0,14.667,0,22c-1.45,0.594-0.966,1.959-1.152,3.017c-9.639,54.818-47.244,94.658-100.444,106.513 c-3.797,0.846-7.865,0.456-11.404,2.47c-0.667,0-1.333,0-2,0c-2.138-5.155-6.782-8.063-10.604-11.671 c-12.82-12.099-25.753-24.078-38.601-36.148c-0.816-0.767-1.277-1.912-1.901-2.881c12.227,0,24.452,0,37.186,0 c-2.994-5.851-6.633-8.331-12.649-7.856c-6.789,0.537-13.653,0.131-20.485,0.122c-9.861-0.013-13.779-3.743-13.8-13.466 c-0.055-25.493,0.038-50.986-0.086-76.479c-0.016-3.384,0.786-4.588,4.4-4.573c32.824,0.133,65.649,0.136,98.472-0.003 c3.684-0.016,4.382,1.31,4.333,4.613c-0.169,11.494-0.065,22.993-0.065,34.49c0,14.496,0.04,28.992-0.021,43.488 c-0.027,6.41-2.799,10.855-8.163,11.404c-5.156,0.528-7.107,4.031-9.899,7.432c16.677,2.978,25.86-4.551,25.863-20.783 c0.002-12.83,0-25.66,0-38.489c0-16.995-0.101-33.992,0.083-50.985c0.038-3.511-0.915-4.744-4.432-4.401 c-2.971,0.29-5.995,0.137-8.991,0.043c-12.974-0.408-23.253-10.835-23.512-23.794c-0.1-4.991-0.2-9.982-0.299-14.973 c2.078-0.06,4.152-0.096,6.085,0.863c0.008,4.979-0.165,9.966,0.063,14.935c0.426,9.302,7.551,16.554,16.869,17.073 C-212.972-67.281-208.318-67.6-203.678-67.659z M-275.364,40.353c8.424,9.665,16.023,18.384,23.624,27.102 c1.735,1.99,2.55,0.122,3.453-0.898c3.751-4.241,7.455-8.522,11.173-12.792c3.638-4.179,7.271-8.361,11.662-13.411 c-3.62,0-5.942-0.252-8.188,0.055c-4.09,0.56-5.02-1.169-4.883-4.988c0.28-7.82-0.03-15.66,0.143-23.486 c0.063-2.844-0.843-3.739-3.658-3.636c-5.324,0.194-10.671,0.257-15.987-0.017c-3.415-0.176-4.628,0.735-4.495,4.347 c0.282,7.653-0.091,15.33,0.164,22.985c0.118,3.555-0.583,5.336-4.569,4.799C-269.3,40.092-271.752,40.353-275.364,40.353z"/> <path fill="#FEFDFD" d="M-142.438-38.5c-2.133-3.85-1.847-8.254-2.755-12.379c-12.986-58.986-64.692-100.622-125.126-100.622 c-67.109,0-122.231,50.692-127.932,117.651c-5.594,65.701,40.708,125.408,105.846,136.609c1.996,0.343,4.352-0.081,5.968,1.741 c-37.667,0-75.333,0-113,0c0-84.333,0.027-168.667-0.096-253c-0.005-3.424,0.672-4.101,4.096-4.096c83,0.123,166,0.123,249,0 c3.424-0.005,4.114,0.67,4.099,4.096C-142.498-111.834-142.438-75.167-142.438-38.5z"/> <path fill="#FEFDFD" d="M-255.438,104.5c3.538-2.014,7.607-1.624,11.404-2.47c53.2-11.855,90.806-51.695,100.444-106.513 c0.186-1.058-0.298-2.423,1.152-3.017c0,36.167-0.046,72.333,0.084,108.5c0.011,2.984-0.601,3.595-3.585,3.584 C-182.437,104.455-218.938,104.5-255.438,104.5z"/> <path fill="#A84640" d="M-291.643-74.429c0-0.499-0.158-1.067,0.025-1.487c1.37-3.14-3.701-9.327,4.639-9.22 c10.121,0.131,14.126,2.782,14.408,10.319c0.251,6.717-3.459,10.982-9.857,11.329C-291.643-62.987-291.643-62.987-291.643-74.429z M-286.885-74.425c1.767,2.014-2.444,6.636,3.266,6.665c4.126,0.022,6.021-2.485,5.932-6.406c-0.085-3.746-1.603-6.399-5.904-6.453 C-289.065-80.688-285.36-76.404-286.885-74.425z"/> <path fill="#A84640" d="M-311.454-74.457c-0.003-0.5-0.003-0.999-0.003-1.499c0-9.556,1.964-11.034,11.602-8.812 c3.858,0.89,5.634,3.343,5.407,7.201c-0.232,3.935-2.454,6.447-6.362,6.152c-4.594-0.347-6.389,1.176-5.635,5.732 c0.297,1.79-0.777,2.181-2.379,2.236c-1.893,0.065-2.74-0.508-2.656-2.52C-311.363-68.792-311.451-71.627-311.454-74.457z M-304.596-81.026c-1.032-0.148-1.828,0.691-1.881,2.88c-0.058,2.417,0.804,3.335,3.15,3.049c1.838-0.224,3.833-0.284,3.922-2.797 C-299.302-80.806-301.529-80.751-304.596-81.026z"/> <path fill="#A84640" d="M-269.637-74.505c-0.007-10.931-0.006-10.952,11.108-10.545c1.644,0.06,4.008-0.731,3.924,2.309 c-0.086,3.08-2.513,1.849-4.089,2.096c-0.811,0.127-1.665-0.048-2.486,0.04c-1.481,0.159-3.562-0.706-3.61,2.059 c-0.049,2.766,2.001,2.037,3.517,2.152c0.991,0.075,1.992,0.048,2.988,0.02c1.327-0.037,2.251,0.339,2.361,1.87 c0.134,1.864-0.984,2.406-2.48,2.167c-5.143-0.82-7.35,1.147-6.499,6.41c0.322,1.995-0.875,2.474-2.701,2.479 c-2.004,0.006-2.033-1.185-2.028-2.589C-269.622-68.859-269.63-71.682-269.637-74.505z"/> <path fill="#FEFDFD" d="M-286.885-74.425c1.525-1.978-2.18-6.263,3.293-6.194c4.301,0.054,5.819,2.707,5.904,6.453 c0.089,3.921-1.806,6.428-5.932,6.406C-289.33-67.79-285.118-72.411-286.885-74.425z"/> <path fill="#FEFDFD" d="M-304.596-81.026c3.067,0.276,5.295,0.221,5.192,3.132c-0.089,2.514-2.084,2.573-3.922,2.797 c-2.347,0.286-3.209-0.632-3.15-3.049C-306.425-80.335-305.628-81.174-304.596-81.026z"/> <g id="Label"> </g>  </g> <g> <g> <path d="M34.437,12.309h3.054l-5.802-6.406v3.659C31.689,11.077,32.922,12.309,34.437,12.309z"/> <g> <path d="M18.603,9.787h-0.359v2.541h0.352c0.3,0,0.514-0.033,0.641-0.1c0.127-0.067,0.226-0.183,0.298-0.349 c0.072-0.166,0.108-0.435,0.108-0.807c0-0.493-0.08-0.83-0.241-1.012C19.242,9.878,18.976,9.787,18.603,9.787z"/> <path d="M34.437,13.645c-2.252,0-4.083-1.832-4.083-4.083V5.903H13.829c-2.709,0-4.912,2.204-4.912,4.912v24.157 c0,2.709,2.204,4.912,4.912,4.912h9.178l-1.751-2.069h-7.427c-1.157,0-2.153-0.696-2.596-1.69 c-0.11-0.156-0.176-0.345-0.181-0.55c-0.042-0.194-0.066-0.396-0.066-0.603l0.063-17.681c0-0.512,0.446-0.958,0.996-0.958h22.394 c0.55,0,0.996,0.446,0.996,0.996l-0.014,17.643c0,1.568-1.275,2.843-2.843,2.843h-0.874l-1.751,2.069h2.625 c2.709,0,4.912-2.204,4.912-4.912V13.645H34.437z M15.613,11.262c-0.282,0.264-0.713,0.397-1.293,0.397h-0.787v1.726H12.09V8.733 h2.389c0.52,0,0.91,0.124,1.169,0.371c0.259,0.247,0.389,0.6,0.389,1.056C16.037,10.631,15.896,10.998,15.613,11.262z M20.918,12.2c-0.113,0.274-0.27,0.503-0.471,0.688c-0.201,0.185-0.417,0.308-0.647,0.37c-0.315,0.085-0.601,0.127-0.857,0.127 h-2.135V8.733h2.135c0.421,0,0.761,0.057,1.02,0.171c0.259,0.114,0.473,0.278,0.642,0.492c0.169,0.214,0.292,0.462,0.368,0.746 c0.076,0.283,0.114,0.584,0.114,0.901C21.088,11.54,21.031,11.926,20.918,12.2z M25.402,9.733h-2.11v0.812h1.802v0.939h-1.802 v1.9h-1.444V8.733h3.553V9.733z"/> <path d="M13.943,9.679h-0.409v1.037h0.352c0.277,0,0.472-0.048,0.584-0.144c0.112-0.096,0.168-0.219,0.168-0.37 c0-0.146-0.049-0.27-0.146-0.371C14.394,9.73,14.211,9.679,13.943,9.679z"/> </g> </g> <path d="M30.263,34.294v-8.579c0-0.917-0.743-1.66-1.66-1.66h-4.33c-0.917,0-1.66,0.743-1.66,1.66v8.579h-2.97l6.794,8.03 l6.794-8.03H30.263z"/> </g> </svg>
