<?xml version="1.0" encoding="utf-8"?>
<!-- Generator: Adobe Illustrator 17.0.0, SVG Export Plug-In . SVG Version: 6.00 Build 0)  -->
<!DOCTYPE svg PUBLIC "-//W3C//DTD SVG 1.1//EN" "http://www.w3.org/Graphics/SVG/1.1/DTD/svg11.dtd">
<svg version="1.1" id="layout1" xmlns="http://www.w3.org/2000/svg" xmlns:xlink="http://www.w3.org/1999/xlink" x="0px" y="0px"
	 width="122.553px" height="258.462px" viewBox="-3.446 0 122.553 258.462" enable-background="new -3.446 0 122.553 258.462"
	 xml:space="preserve">
<g>
	<g>
		<path fill="#FFFFFF" d="M31.193,138.783l0.531,80.43c0,0,20.384,6.017,26.553,5.741c5.529-0.248,28.503-7.45,28.503-7.45
			l-0.292-79.55l-27.193,12.661L31.193,138.783z"/>
		<path fill="#282828" d="M109.359,141.596c-3.57-7.078-13.14-9.027-13.14-9.027s-4.566,3.627-6.245,4.422
			c-2.651,1.254-10.259,2.811-10.259,2.811l-21.379,44.792l-22.128-44.859c0,0-7.627-1.458-10.294-2.678
			c-1.689-0.772-7.008-4.021-7.008-4.021s-8.837,1.754-12.316,8.878C1.464,152.41-1.7,170.671-3.446,187.95
			c3.774,4.595,16.283,3.424,17.792,3.09c-1.327,14.884-0.935,27.944,0.55,29.868c4.909,6.361,35.841,12.13,35.841,12.13
			l8.535-20.884l6.331,20.884c0,0,31.647-5.922,36.473-12.346c1.46-1.943,1.683-15.008,0.163-29.873
			c1.513,0.315,13.154,2.187,16.868-2.457C117.138,171.108,114.62,152.026,109.359,141.596z"/>
		<polygon fill="#545454" points="86.488,137.954 79.715,139.802 57.947,183.584 36.208,139.735 28.878,138.054 28.878,155.592 
			37.192,157.252 33.222,169.024 61.551,190.854 59.674,187.068 82.144,169.754 78.174,157.981 86.488,156.322 		"/>
		<polygon fill="#282828" points="77.248,145.847 59.272,151.398 41.296,145.847 41.296,159.344 59.272,153.516 77.248,159.344 		
			"/>
	</g>
	<path fill="#231815" d="M25.635,226.396c0,0-8.339-1.886-11.186-6.515c-1.575-2.561-0.561-23.612,1.728-41.457
		c1.861-14.509,3.89-22.014,3.89-22.014s-2.072,35.944-1.047,48.741C20.123,218.916,25.635,226.396,25.635,226.396z"/>
	<path fill="#545454" d="M93.201,224.17c0,0,7.168-0.959,9.674-5.085c1.387-2.284,0.653-23.176-1.504-40.908
		c-1.74-14.303-3.383-25.582-3.383-25.582s2.379,38.216,0.404,50.749C96.485,215.44,93.201,224.17,93.201,224.17z"/>
</g>
</svg>
